<?xml version="1.0" encoding="utf-8"?>
<!-- Generator: Adobe Illustrator 15.1.0, SVG Export Plug-In . SVG Version: 6.00 Build 0)  -->
<!DOCTYPE svg PUBLIC "-//W3C//DTD SVG 1.1//EN" "http://www.w3.org/Graphics/SVG/1.1/DTD/svg11.dtd">
<svg version="1.1" id="Layer_1" xmlns="http://www.w3.org/2000/svg" xmlns:xlink="http://www.w3.org/1999/xlink" x="0px" y="0px"
	 width="16px" height="16px" viewBox="9.999 10 16 16" enable-background="new 9.999 10 16 16" xml:space="preserve">
<path fill="#007BB6" d="M24.762,10.062h-13.53c-0.646,0-1.171,0.513-1.171,1.145v13.584c0,0.632,0.525,1.146,1.171,1.146h13.53
	c0.647,0,1.174-0.514,1.174-1.146V11.208C25.936,10.575,25.41,10.062,24.762,10.062z M14.771,23.59h-2.357v-7.576h2.357V23.59z
	 M13.593,14.979c-0.756,0-1.366-0.612-1.366-1.366s0.61-1.365,1.366-1.365c0.753,0,1.365,0.611,1.365,1.365
	C14.958,14.367,14.346,14.979,13.593,14.979z M23.59,23.59h-2.354v-3.684c0-0.879-0.015-2.009-1.223-2.009
	c-1.225,0-1.412,0.957-1.412,1.945v3.747h-2.352v-7.576h2.257v1.036h0.032c0.314-0.596,1.082-1.224,2.228-1.224
	c2.383,0,2.825,1.568,2.825,3.608V23.59z"/>
</svg>
